<svg width="72" height="48" viewBox="0 0 72 48" fill="none" xmlns="http://www.w3.org/2000/svg">
<rect opacity="0.01" width="72" height="48" transform="matrix(-1 0 0 1 72 0)" fill="white"/>
<path d="M34.6692 32.3496C36.1216 33.0928 36.6783 33.8963 36.4303 35.1588C36.2086 36.2861 34.8282 38.1336 34.8282 38.1336C33.3598 40.46 31.0824 42.1585 28.4352 42.8979C25.8567 43.6181 22.8275 44.427 21.7398 44.5715" stroke="white" stroke-width="1.71429" stroke-linecap="round" stroke-linejoin="round"/>
<path d="M29.872 32.2233L31.5931 30.0468C32.2511 29.2145 32.111 28.0055 31.2799 27.3466C30.4491 26.6876 29.2417 26.8279 28.5837 27.6602L26.0679 30.8416" stroke="white" stroke-width="1.71429" stroke-linecap="round" stroke-linejoin="round"/>
<path d="M31.8884 35.8656L40.1635 25.4012C40.8215 24.5689 40.6811 23.3599 39.8503 22.701C39.0192 22.042 37.8122 22.1826 37.1538 23.0146L29.4747 32.7255" stroke="white" stroke-width="1.71429" stroke-linecap="round" stroke-linejoin="round"/>
<path d="M26.0687 30.8415L27.7899 28.665C28.4479 27.8324 28.3078 26.6237 27.4767 25.9647C26.6459 25.3058 25.4385 25.4461 24.7805 26.2784L22.2647 29.4595" stroke="white" stroke-width="1.71429" stroke-linecap="round" stroke-linejoin="round"/>
<path d="M22.0657 29.7106L23.5885 27.7853C24.2462 26.953 24.1061 25.744 23.2749 25.085C22.4441 24.426 21.2368 24.5664 20.5787 25.3986L18.2616 28.3289C18.2616 28.3289 13.9867 32.7027 13.7144 38.2074" stroke="white" stroke-width="1.71429" stroke-linecap="round" stroke-linejoin="round"/>
<path d="M54.621 18.4983L58.7471 14.3783L54.621 10.2577" stroke="white" stroke-width="1.4077" stroke-linecap="round" stroke-linejoin="round"/>
<path d="M58.6709 14.3782L38.7641 14.3782" stroke="white" stroke-width="1.4077" stroke-linecap="round" stroke-linejoin="round"/>
<path d="M39.2593 10.2581L35.1332 14.3781L39.2593 18.4987" stroke="white" stroke-width="1.4077" stroke-linecap="round" stroke-linejoin="round"/>
<path d="M35.2089 14.3782L55.1157 14.3782" stroke="white" stroke-width="1.4077" stroke-linecap="round" stroke-linejoin="round"/>
<path d="M42.8198 22.0588L46.9398 26.1849L51.0604 22.0588" stroke="white" stroke-width="1.4077" stroke-linecap="round" stroke-linejoin="round"/>
<path d="M46.9404 26.109V6.20216" stroke="white" stroke-width="1.4077" stroke-linecap="round" stroke-linejoin="round"/>
<path d="M51.0599 6.69753L46.94 2.57148L42.8193 6.69753" stroke="white" stroke-width="1.4077" stroke-linecap="round" stroke-linejoin="round"/>
<path d="M46.9404 2.64734V22.5542" stroke="white" stroke-width="1.4077" stroke-linecap="round" stroke-linejoin="round"/>
</svg>
