<svg width="53" height="48" viewBox="0 0 53 48" fill="none" xmlns="http://www.w3.org/2000/svg">
<path d="M24.302 30.3555L20.2249 27.5038C19.5695 27.0289 18.3523 26.6388 17.5688 27.3222C16.785 28.0056 16.7037 29.1951 17.3871 29.9786L21.5941 32.9792L23.7234 35.9673C24.8897 37.6043 27.1708 39.8723 28.788 41.0656" stroke="white" stroke-width="1.71429" stroke-linecap="round" stroke-linejoin="round"/>
<rect opacity="0.01" y="6.85715" width="52.7143" height="35.1429" fill="white"/>
<path d="M27.6389 26.6229L27.1892 23.9411C27.0176 22.9157 27.7095 21.9449 28.7349 21.7729C29.7603 21.6013 30.7308 22.2932 30.9028 23.3186L31.5601 27.2383" stroke="white" stroke-width="1.71429" stroke-linecap="round" stroke-linejoin="round"/>
<path d="M24.4444 30.3402L22.0233 15.899C21.8513 14.8736 22.5432 13.9027 23.5689 13.7308C24.5944 13.5589 25.5649 14.251 25.7368 15.2765L27.7428 27.242" stroke="white" stroke-width="1.71429" stroke-linecap="round" stroke-linejoin="round"/>
<path d="M31.5606 27.2382L31.1106 24.5564C30.939 23.531 31.6308 22.5602 32.6563 22.3882C33.6817 22.2166 34.6525 22.9084 34.8241 23.9339L35.4815 27.8535" stroke="white" stroke-width="1.71429" stroke-linecap="round" stroke-linejoin="round"/>
<path d="M35.5329 28.163L35.135 25.7906C34.9634 24.7651 35.6553 23.7946 36.6807 23.6227C37.7061 23.4507 38.6769 24.1426 38.8486 25.168L39.4538 28.7783C39.4538 28.7783 41.0585 34.5543 38.6904 39.4056" stroke="white" stroke-width="1.71429" stroke-linecap="round" stroke-linejoin="round"/>
<path d="M26.8452 7.48465H31.9955V12.6353" stroke="white" stroke-width="1.71429" stroke-linecap="round" stroke-linejoin="round"/>
<path d="M31.9488 7.53185L27.0991 12.3816" stroke="white" stroke-width="1.71429" stroke-linecap="round" stroke-linejoin="round"/>
<path d="M13.936 35.0876H8.78564V29.9369" stroke="white" stroke-width="1.71429" stroke-linecap="round" stroke-linejoin="round"/>
<path d="M8.83301 35.0404L13.6827 30.1907" stroke="white" stroke-width="1.71429" stroke-linecap="round" stroke-linejoin="round"/>
</svg>
