<svg width="95" height="34" viewBox="0 0 95 34" fill="none" xmlns="http://www.w3.org/2000/svg">
<g clip-path="url(#clip0_1969_23356)">
<path d="M7.24414 0.150208C9.54372 0.150229 11.3368 0.320563 12.5879 0.701965C13.8863 1.0979 14.9339 1.9114 15.7041 3.09845C16.4965 4.31986 16.8414 6.20494 16.8242 8.6756L16.8115 9.29181C16.75 10.6844 16.4697 11.7802 15.9316 12.5096C15.5404 13.0505 14.9377 13.5141 14.1523 13.9246C15.0017 14.1874 15.6839 14.5835 16.1543 15.1326L16.2949 15.3104L16.2979 15.3143C16.9818 16.2681 17.2578 17.72 17.2578 19.5926C17.2578 20.4644 17.2577 21.3421 17.2402 22.2205C17.2394 24.1625 16.9936 25.6885 16.5244 26.784L16.5254 26.785C16.05 27.9115 15.2862 28.7752 14.2715 29.4246L14.2666 29.4285C13.3899 29.9736 11.7539 30.5792 9.44434 31.3143L8.41406 31.6375C5.66782 32.4902 2.92239 33.428 0.195312 34.4676L-0.482422 34.7254V0.701965H-0.00195312L-0.00390625 0.201965C2.40488 0.184854 4.8141 0.167319 7.24023 0.150208H7.24414ZM8.43555 18.0418C8.23667 18.029 7.98269 18.0365 7.67285 18.0672C7.6713 20.5562 7.65746 23.0564 7.64258 25.5447C8.2136 25.3193 8.53418 25.1017 8.68066 24.9188C8.7504 24.8208 8.83673 24.6178 8.90234 24.2508C8.96724 23.8877 9.00521 23.4123 9.01367 22.8192V20.0203C9.01367 19.3813 8.98326 18.8981 8.92871 18.5574C8.90143 18.3872 8.87083 18.266 8.84082 18.1854C8.82504 18.143 8.81166 18.1203 8.80566 18.1102C8.77839 18.098 8.67723 18.0574 8.43555 18.0418ZM7.72461 6.43146C7.72258 8.36543 7.70983 10.2887 7.69531 12.2205C7.75451 12.2131 7.80909 12.2051 7.85938 12.2C8.48981 12.1241 8.73236 11.9171 8.81738 11.7488C8.87282 11.6286 8.94226 11.3349 8.99414 10.7908C9.04411 10.2666 9.07434 9.56497 9.08301 8.6756L9.07031 8.0379C9.04428 7.46962 8.98067 7.10484 8.89551 6.89923H8.89453C8.76516 6.60476 8.64147 6.51885 8.57812 6.49786C8.51447 6.47691 8.37888 6.45359 8.13672 6.44122C8.01679 6.4351 7.87966 6.43183 7.72461 6.43146Z" fill="white" stroke="#20211F"/>
<path d="M31.3989 0.530457C31.3989 2.24443 31.3811 3.97508 31.3638 5.68573L31.3589 6.16522L30.8794 6.18085C30.0737 6.20651 29.2636 6.23233 28.4536 6.258C27.8047 6.27855 27.1559 6.29896 26.5093 6.31952C26.5067 7.65543 26.4956 8.98214 26.4819 10.3156C27.8166 10.2283 29.1609 10.1507 30.4888 10.0754L31.021 10.0451L31.0171 10.5783L30.9829 15.4894L30.979 15.9484L30.522 15.9846C29.1513 16.0922 27.7944 16.2129 26.4233 16.3361C26.4191 17.9304 26.396 19.5371 26.3794 21.1262C27.9792 20.9178 29.578 20.735 31.1753 20.5666L31.728 20.508V21.0637C31.728 22.7777 31.7102 24.4916 31.6929 26.2023L31.689 26.6389L31.2554 26.6935C27.043 27.222 22.8477 27.9551 18.6694 28.8928L18.0552 29.0305L18.0601 28.4006C18.1294 19.1265 18.199 9.83447 18.2856 0.559753L18.7847 0.561707L18.7837 0.0822144C22.8213 0.0651038 26.8594 0.0475671 30.897 0.0304565L31.3989 0.0285034V0.530457Z" fill="white" stroke="#20211F"/>
<path d="M40.0479 -0.5C41.9838 -0.5 43.6442 -0.219306 45.0508 0.339844C46.4442 0.893796 47.4323 1.64041 47.9424 2.60742C48.4373 3.5458 48.6416 5.04076 48.6416 7.01562V7.99121H48.1582V8.49121C45.9046 8.49121 43.657 8.49081 41.3936 8.54199L40.8828 8.55371V6.19434C40.8828 5.78029 40.8619 5.45775 40.8242 5.21973C40.7843 4.96764 40.7337 4.8669 40.7178 4.84473C40.6802 4.79282 40.5818 4.70898 40.2559 4.70898C39.9643 4.70909 39.7908 4.81629 39.6895 4.97461L39.6797 4.99023C39.5357 5.19803 39.4219 5.56114 39.4219 6.16016C39.4219 6.95713 39.5388 7.46963 39.7168 7.78809L39.7871 7.8877C39.878 7.99868 40.0313 8.14255 40.2725 8.31738C40.5862 8.5448 41.0167 8.8009 41.5752 9.08496H41.5742C43.2056 9.9119 44.5466 10.6797 45.5918 11.3838C46.6301 12.0832 47.4051 12.7388 47.8779 13.3486C48.83 14.5767 49.248 16.4601 49.248 18.9248C49.248 20.716 49.0039 22.1025 48.4736 23.0527C47.9276 24.0312 46.8913 24.7731 45.502 25.3887L45.4971 25.3906C44.0811 26.0001 42.4432 26.3525 40.6094 26.4404L40.6084 26.4395C38.5923 26.5439 36.8512 26.3551 35.376 25.7725C33.9182 25.1966 32.8822 24.3693 32.3955 23.208C31.9408 22.123 31.7325 20.5886 31.75 18.6299V16.4941L32.2119 16.459C34.4699 16.2875 36.7468 16.1503 39.0244 16.0645L39.1162 16.0605C38.6551 15.7852 38.1066 15.4709 37.4678 15.1191V15.1182C35.6568 14.1304 34.4204 13.3925 33.8076 12.8975V12.8965C33.1445 12.3747 32.615 11.6552 32.209 10.7441C31.789 9.80171 31.5935 8.6117 31.6113 7.21484C31.6119 5.21955 31.9081 3.6725 32.5342 2.64844C33.1546 1.63379 34.1316 0.851901 35.4424 0.323242C36.7336 -0.238538 38.2748 -0.499954 40.0479 -0.5ZM39.543 19.6094C39.543 20.0681 39.5645 20.4204 39.6045 20.6797C39.6466 20.9531 39.701 21.0629 39.7217 21.0908C39.7675 21.1525 39.9053 21.2608 40.3076 21.2324L40.3164 21.2314H40.3252C40.6749 21.2191 40.8851 21.0937 41.0264 20.8945C41.1825 20.6743 41.2988 20.2828 41.2988 19.6611C41.2988 18.9557 41.244 18.3941 41.1436 17.9707C41.0421 17.543 40.9053 17.3049 40.7812 17.1855C40.5591 16.9835 40.1486 16.6955 39.543 16.3203V19.6094Z" fill="white" stroke="#20211F"/>
<path d="M49.1118 0.0133667C54.397 0.0133667 59.6832 0.0138318 64.9868 0.0309448L65.1069 0.547546H65.4507C65.4507 2.27269 65.4685 3.99832 65.4858 5.70966L65.4907 6.22723L64.9741 6.21552C64.2532 6.19836 63.5319 6.17635 62.813 6.15497C62.2657 6.13869 61.7193 6.12343 61.1733 6.10907C61.1902 9.31595 61.2104 12.5229 61.231 15.7302C61.2526 19.1096 61.2742 22.49 61.2915 25.8698L61.2944 26.4235L60.7427 26.3698C58.3062 26.1309 55.8726 25.9437 53.4409 25.8415L52.9624 25.821L52.9614 25.3434C52.9445 18.8871 52.9275 12.4304 52.9106 5.98993C51.6355 5.98663 50.3626 5.97381 49.106 5.95868L48.6118 5.95282V0.0133667H49.1118Z" fill="white" stroke="#20211F"/>
<path d="M69.9761 0.0475464C71.1468 0.0475464 72.3174 0.051869 73.4878 0.0582886L76.9985 0.0817261L77.4224 0.0846558L77.4888 0.503601C77.6074 1.25654 77.8794 2.51797 78.2622 4.35614L78.4878 5.38446C78.5107 5.49174 78.532 5.59869 78.5542 5.70477C78.8854 3.98831 79.2164 2.2592 79.5532 0.504578L79.6313 0.0993042H80.0444C82.0744 0.0993042 84.1042 0.116376 86.1313 0.133484L86.728 0.138367L86.6187 0.724304C85.7938 5.15317 84.9849 9.50091 84.1597 13.7311C85.4693 19.3834 86.7623 25.2384 88.0376 31.3132L88.2134 32.1511L87.397 31.8932C85.1879 31.1946 82.9781 30.563 80.7671 29.9831L80.4839 29.9089L80.4097 29.6266C79.8184 27.3782 79.2561 24.8544 78.7271 22.0563C78.6263 22.7753 78.5161 23.5064 78.3901 24.2468C78.1838 25.7241 77.9547 27.2282 77.7495 28.6804L77.6733 29.2204L77.1411 29.0974C74.7933 28.5519 72.4457 28.0738 70.0981 27.6647L69.604 27.5788L69.6919 27.0856C70.5352 22.3276 71.3602 17.4846 72.2036 12.5554C71.2927 8.51661 70.3994 4.56302 69.4888 0.660828L69.3462 0.0475464H69.9761Z" fill="#B8FF12" stroke="#20211F"/>
<path d="M95.4995 34.7234L94.8228 34.4676C92.4727 33.5803 90.1075 32.7453 87.7271 31.9959L87.3794 31.8865L87.3774 31.5213C87.3514 26.3792 87.3298 21.2328 87.3081 16.0867C87.2864 10.9406 87.2648 5.79468 87.2388 0.653137L87.2358 0.150208H87.7388C90.1669 0.150208 92.5823 0.18489 95.0034 0.201965L95.4995 0.204895V34.7234Z" fill="#B8FF12" stroke="#20211F"/>
</g>
<defs>
<clipPath id="clip0_1969_23356">
<rect width="95" height="34" fill="white"/>
</clipPath>
</defs>
</svg>
