<svg width="100" height="100" viewBox="0 0 100 100" fill="none" xmlns="http://www.w3.org/2000/svg">
<path d="M18.1035 50C18.1035 55.7675 19.5273 61.1012 22.3777 65.9997C25.2267 70.8982 29.1005 74.7734 34.0003 77.6224C38.8988 80.4714 44.2325 81.8966 50.0001 81.8966C55.7676 81.8966 61.1013 80.4728 65.9998 77.6224C70.8983 74.7734 74.772 70.8996 77.6224 65.9997C80.4714 61.1012 81.8966 55.7675 81.8966 50C81.8966 44.2325 80.4714 38.8988 77.6224 34.0003C74.7734 29.1018 70.8997 25.228 65.9998 22.3776C61.593 19.8146 56.8339 18.4039 51.7237 18.1465C50.7727 18.0986 50.0001 18.8754 50.0001 19.8276V20.1321C50.0001 21.0843 50.7729 21.8507 51.7235 21.9049C56.1707 22.1584 60.3042 23.4018 64.1241 25.634C68.4317 28.1535 71.8452 31.567 74.3646 35.8746C76.8827 40.1835 78.1424 44.8902 78.1424 49.9986C78.1424 55.1071 76.8827 59.8137 74.3646 64.1226C71.8452 68.4316 68.4317 71.8451 64.1241 74.3632C59.8151 76.8827 55.1085 78.141 50.0001 78.141C44.8916 78.141 40.1836 76.8813 35.876 74.3632C31.5671 71.8437 28.1536 68.4302 25.6355 64.1226C23.116 59.8151 21.8577 55.1071 21.8577 49.9986C21.8577 44.8902 23.116 40.1835 25.6355 35.8746C27.0516 33.4521 28.7575 31.3193 30.7424 29.4655C31.4391 28.8147 31.5461 27.7302 30.9377 26.9961L30.7349 26.7514C30.1282 26.0194 29.0399 25.9131 28.3402 26.5567C26.0123 28.6976 24.0201 31.1733 22.3777 33.9989C19.5287 38.8974 18.1035 44.2311 18.1035 49.9986V50Z" fill="#777777"/>
<path d="M16.4146 30.5528C16.4146 30.5524 16.4141 30.5523 16.4139 30.5526C12.9411 36.5049 11.2068 42.9869 11.2068 50C11.2068 57.0136 12.9427 63.496 16.4146 69.4486C19.8865 75.4012 24.5987 80.1134 30.5513 83.5853C36.5039 87.0572 42.9863 88.7931 49.9999 88.7931C57.0135 88.7931 63.4959 87.0572 69.4485 83.5853C75.401 80.1134 80.1133 75.4012 83.5852 69.4486C87.057 63.496 88.793 57.0136 88.793 50C88.793 42.9864 87.0557 36.504 83.5852 30.5514C80.1119 24.5989 75.401 19.8866 69.4485 16.4147C63.9867 13.2292 58.0778 11.505 51.7239 11.2423C50.7725 11.203 49.9999 11.9788 49.9999 12.931V13.1778C49.9999 14.13 50.7723 14.8975 51.7234 14.9428C55.857 15.1401 59.8329 16.0504 63.6492 17.6729C67.9932 19.5197 71.7306 22.0086 74.8616 25.1396C77.9913 28.2692 80.4802 32.0081 82.3284 36.3521C84.1752 40.6974 85.0993 45.2467 85.0993 50.0014C85.0993 54.7561 84.1752 59.3067 82.3284 63.6507C80.4816 67.996 77.9926 71.7321 74.8616 74.8631C71.732 77.9928 67.9932 80.4817 63.6492 82.3299C59.3039 84.1767 54.7546 85.1008 49.9999 85.1008C45.2452 85.1008 40.6945 84.1767 36.3506 82.3299C32.0052 80.483 28.2691 77.9941 25.1381 74.8631C22.0085 71.7335 19.5196 67.996 17.6714 63.6507C15.8246 59.3067 14.9005 54.7561 14.9005 50.0014C14.9005 45.2467 15.8246 40.696 17.6714 36.3521C19.5182 32.0081 22.0071 28.2706 25.1381 25.1396C25.5037 24.774 25.8779 24.4173 26.2603 24.0693C26.9669 23.4263 27.0752 22.3386 26.4656 21.603L26.3462 21.4588C25.7392 20.7263 24.6508 20.6209 23.9448 21.2584C20.9979 23.9195 18.4813 27.011 16.4153 30.553C16.4151 30.5533 16.4146 30.5532 16.4146 30.5528Z" fill="#777777"/>
<path d="M92.0598 32.2573C89.6395 26.6216 86.3902 21.766 82.3121 17.6879C78.2326 13.6097 73.3771 10.3605 67.7427 7.94018C62.6321 5.74656 57.2931 4.54646 51.7237 4.34189C50.7722 4.30694 50 5.08229 50 6.0345V6.24178C50 7.19399 50.7723 7.96219 51.7238 8.0002C56.7875 8.20251 61.6526 9.30009 66.3219 11.291C71.5161 13.5082 75.9924 16.4946 79.7496 20.2518C83.5067 24.0089 86.4932 28.4839 88.7104 33.6794C90.9262 38.8749 92.0354 44.3156 92.0354 50.0014C92.0354 55.6872 90.9262 61.1278 88.7104 66.3234C86.4932 71.5189 83.5067 75.9939 79.7496 79.751C75.9924 83.5081 71.5161 86.4946 66.3219 88.7118C61.1264 90.9289 55.6858 92.0368 50 92.0368C44.3141 92.0368 38.8735 90.9289 33.678 88.7118C28.4825 86.4959 24.0075 83.5081 20.2503 79.751C16.4932 75.9939 13.5067 71.5189 11.2896 66.3234C9.07241 61.1278 7.9645 55.6872 7.9645 50.0014C7.9645 44.3156 9.07241 38.8749 11.2896 33.6794C13.5054 28.4839 16.4932 24.0089 20.2503 20.2518C20.7688 19.7333 21.3013 19.2301 21.8473 18.7415C22.5588 18.1047 22.6658 17.0172 22.0565 16.282L21.9432 16.1452C21.3374 15.4143 20.2521 15.308 19.5426 15.9388C18.9069 16.5039 18.2882 17.0869 17.6865 17.6879C13.607 21.766 10.3591 26.6229 7.93877 32.2573C5.51979 37.8916 4.3103 43.8063 4.3103 50C4.3103 56.1937 5.51979 62.1071 7.94012 67.7428C10.3591 73.3785 13.6083 78.234 17.6878 82.3122C21.7659 86.3903 26.6228 89.6395 32.2572 92.0599C37.8929 94.4788 43.8062 95.6897 50 95.6897C56.1937 95.6897 62.107 94.4788 67.7427 92.0599C73.3784 89.6409 78.234 86.3916 82.3121 82.3122C86.3902 78.234 89.6395 73.3771 92.0598 67.7428C94.4788 62.1071 95.6896 56.1937 95.6896 50C95.6896 43.8063 94.4788 37.893 92.0598 32.2573Z" fill="#777777"/>
<g clip-path="url(#clip0_1541_35134)">
<path d="M37.8583 38.1781H28.9455L25.3809 41.7422V62.3815L28.9445 65.9456H37.8583L41.4224 62.3815V41.7422L37.8583 38.1781ZM32.5107 45.308H34.2925V58.8158H32.5107V45.308Z" fill="black"/>
<path d="M37.8579 38.1781H28.9457L25.3808 41.7421V62.3816L28.944 65.9456H37.8579L41.4228 62.3816V41.7421L37.8579 38.1781ZM34.2922 45.3079V58.8158H32.5106V45.3079H34.2922ZM42.9309 63.0066L38.4829 67.4546H28.3199L24.3143 63.4482L23.8718 63.0066V41.1171L27.8791 37.1115L28.3207 36.6691H38.4829L42.9309 41.1171V63.0066Z" fill="black"/>
<path d="M52.1163 38.1781V55.4108H50.3345V38.1781H43.2046V58.9765L46.7687 65.9462H55.6815L59.2461 58.9765V38.1781H52.1163Z" fill="black"/>
<path d="M52.1161 38.1781V55.4106H50.3346V38.1781H43.2048V58.9763L46.7688 65.9464H55.6819L59.2467 58.9763V38.1781H52.1161ZM60.7549 59.3398L56.6049 67.4546H45.8458L41.6958 59.3398V36.6691H60.7549V59.3398Z" fill="black"/>
<path d="M75.2878 55.5586V50.655H77.0701V41.7422L73.506 38.1781H61.0286V65.9462H68.1584V55.6945H69.9402V65.9462H77.0707V55.5586H75.2878ZM69.9402 50.655H68.1584V45.308H69.9402V50.655Z" fill="black"/>
<path d="M68.1583 65.9464V55.6942H69.9399V65.9464H77.0705V55.5584H75.288V50.6552H77.0705V41.7421L73.5056 38.1781H61.0285V65.9464H68.1583ZM69.9399 45.3079V50.6552H68.1583V45.3079H69.9399ZM78.5786 52.1633H76.7962V54.0502H78.5795V67.4546H59.5195V36.6691H74.1306L78.5786 41.1171V52.1633Z" fill="black"/>
<path d="M35.5953 35.1608H26.6826L23.1179 38.7249V59.3642L26.6815 62.9283H35.5953L39.1595 59.3642V38.7249L35.5953 35.1608ZM30.2478 42.2907H32.0296V55.7985H30.2478V42.2907Z" fill="#777777"/>
<path d="M35.595 35.1608H26.6828L23.1179 38.7248V59.3643L26.6811 62.9283H35.595L39.1598 59.3643V38.7248L35.595 35.1608ZM32.0292 42.2906V55.7985H30.2476V42.2906H32.0292ZM40.668 59.9893L36.22 64.4373H26.0569L22.0513 60.4308L21.6089 59.9893V38.0998L25.6162 34.0942L26.0578 33.6518H36.22L40.668 38.0998V59.9893Z" fill="black"/>
<path d="M49.8536 35.1608V55.8717H48.0718V35.1608H40.9419V54.5217L46.2452 62.9289H51.6797L56.9834 54.5217V35.1608H49.8536Z" fill="#777777"/>
<path d="M49.8532 35.1608V55.8716H48.0716V35.1608H40.9419V54.5214L46.245 62.9291H51.6798L56.9838 54.5214V35.1608H49.8532ZM58.492 54.9578L52.512 64.4373H45.4128L39.4329 54.9578V33.6518H58.492V54.9578Z" fill="black"/>
<path d="M73.0248 52.5413V47.6377H74.8072V38.7249L71.2431 35.1608H58.7656V62.9289H65.8955V52.6772H67.6773V62.9289H74.8077V52.5413H73.0248ZM67.6773 47.6377H65.8955V42.2907H67.6773V47.6377Z" fill="#777777"/>
<path d="M65.8953 62.9291V52.6769H67.6769V62.9291H74.8075V52.5411H73.0251V47.6379H74.8075V38.7248L71.2427 35.1608H58.7656V62.9291H65.8953ZM67.6769 42.2906V47.6379H65.8953V42.2906H67.6769ZM76.3157 49.146H74.5333V51.0329H76.3165V64.4373H57.2566V33.6518H71.8677L76.3157 38.0998V49.146Z" fill="black"/>
</g>
<defs>
<clipPath id="clip0_1541_35134">
<rect width="57.3917" height="34.7826" fill="white" transform="translate(21.3044 33.6087)"/>
</clipPath>
</defs>
</svg>
