<svg width="20" height="20" viewBox="0 0 20 20" fill="none" xmlns="http://www.w3.org/2000/svg">
<path d="M9.39605 3.70801H4.42134C4.04438 3.70801 3.68286 3.85776 3.4163 4.12431C3.14975 4.39086 3 4.75239 3 5.12935V15.0788C3 15.4557 3.14975 15.8173 3.4163 16.0838C3.68286 16.3504 4.04438 16.5001 4.42134 16.5001H14.3708C14.7477 16.5001 15.1092 16.3504 15.3758 16.0838C15.6424 15.8173 15.7921 15.4557 15.7921 15.0788V10.1041" stroke="#F8F8F9" stroke-width="1.5" stroke-linecap="round" stroke-linejoin="round"/>
<path d="M13.9266 3.44156C14.2093 3.15883 14.5928 3 14.9926 3C15.3924 3 15.7759 3.15883 16.0586 3.44156C16.3413 3.72428 16.5002 4.10773 16.5002 4.50756C16.5002 4.90739 16.3413 5.29085 16.0586 5.57357L9.65333 11.9796C9.48458 12.1482 9.27611 12.2716 9.04713 12.3385L7.00537 12.9354C6.94422 12.9533 6.87939 12.9543 6.81769 12.9385C6.75598 12.9227 6.69966 12.8906 6.65461 12.8456C6.60957 12.8005 6.57746 12.7442 6.56165 12.6825C6.54585 12.6208 6.54691 12.556 6.56475 12.4948L7.16172 10.4531C7.22889 10.2242 7.35256 10.016 7.52132 9.84756L13.9266 3.44156Z" stroke="#F8F8F9" stroke-width="1.5" stroke-linecap="round" stroke-linejoin="round"/>
</svg>
