<svg width="74" height="48" viewBox="0 0 74 48" fill="none" xmlns="http://www.w3.org/2000/svg">
<path d="M22.6869 9.70483H12.4372L8.33783 13.8036V37.5387L12.436 41.6375H22.6869L26.7856 37.5387V13.8036L22.6869 9.70483ZM16.5372 17.9042H18.5863V33.4381H16.5372V17.9042Z" fill="black"/>
<path d="M22.6865 9.70483H12.4374L8.33783 13.8035V37.5388L12.4355 41.6375H22.6865L26.7861 37.5388V13.8035L22.6865 9.70483ZM18.5859 17.9041V33.4382H16.537V17.9041H18.5859ZM28.5204 38.2576L23.4052 43.3728H11.7177L7.11127 38.7654L6.60248 38.2576V13.0847L11.2109 8.47827L11.7187 7.96948H23.4052L28.5204 13.0847V38.2576Z" fill="black"/>
<path d="M39.0837 9.70483V29.5224H37.0346V9.70483H28.8353V33.623L32.934 41.6381H43.1837L47.2831 33.623V9.70483H39.0837Z" fill="black"/>
<path d="M39.0833 9.70483V29.5222H37.0345V9.70483H28.8353V33.6228L32.9339 41.6384H43.1839L47.2835 33.6228V9.70483H39.0833ZM49.0179 34.0408L44.2454 43.3728H31.8724L27.0999 34.0408V7.96948H49.0179V34.0408Z" fill="black"/>
<path d="M65.7309 29.6924V24.0533H67.7806V13.8036L63.6818 9.70483H49.3328V41.6381H57.5321V29.8487H59.5812V41.6381H67.7812V29.6924H65.7309ZM59.5812 24.0533H57.5321V17.9042H59.5812V24.0533Z" fill="black"/>
<path d="M57.532 41.6384V29.8484H59.5808V41.6384H67.781V29.6921H65.7312V24.0535H67.781V13.8035L63.6814 9.70483H49.3328V41.6384H57.532ZM59.5808 17.9041V24.0535H57.532V17.9041H59.5808ZM69.5154 25.7878H67.4656V27.9578H69.5164V43.3728H47.5974V7.96948H64.4001L69.5154 13.0847V25.7878Z" fill="black"/>
<path d="M20.0844 6.23499H9.83478L5.73541 10.3337V34.0689L9.83354 38.1676H20.0844L24.1832 34.0689V10.3337L20.0844 6.23499ZM13.9348 14.4343H15.9838V29.9683H13.9348V14.4343Z" fill="#C0C0C0"/>
<path d="M20.084 6.23499H9.83502L5.73541 10.3336V34.069L9.83307 38.1676H20.084L24.1837 34.069V10.3336L20.084 6.23499ZM15.9835 14.4342V29.9684H13.9346V14.4342H15.9835ZM25.918 34.7877L20.8028 39.903H9.1153L4.50885 35.2955L4.00006 34.7877V9.61487L8.60846 5.00842L9.11627 4.49963H20.8028L25.918 9.61487V34.7877Z" fill="black"/>
<path d="M36.4813 6.23499V30.0525H34.4323V6.23499H26.2329V28.5L32.3317 38.1683H38.5813L44.6807 28.5V6.23499H36.4813Z" fill="#C0C0C0"/>
<path d="M36.481 6.23499V30.0524H34.4321V6.23499H26.2329V28.4996L32.3315 38.1686H38.5815L44.6812 28.4996V6.23499H36.481ZM46.4155 29.0016L39.5386 39.903H31.3745L24.4976 29.0016V4.49963H46.4155V29.0016Z" fill="black"/>
<path d="M63.1285 26.2225V20.5834H65.1782V10.3337L61.0794 6.23499H46.7304V38.1683H54.9298V26.3789H56.9788V38.1683H65.1788V26.2225H63.1285ZM56.9788 20.5834H54.9298V14.4343H56.9788V20.5834Z" fill="#C0C0C0"/>
<path d="M54.9296 38.1686V26.3785H56.9785V38.1686H65.1786V26.2223H63.1288V20.5836H65.1786V10.3336L61.079 6.23499H46.7304V38.1686H54.9296ZM56.9785 14.4342V20.5836H54.9296V14.4342H56.9785ZM66.913 22.318H64.8632V24.4879H66.914V39.903H44.9951V4.49963H61.7978L66.913 9.61487V22.318Z" fill="black"/>
</svg>
