<svg width="131" height="68" viewBox="0 0 131 68" fill="none" xmlns="http://www.w3.org/2000/svg">
<g clip-path="url(#clip0_12_9694)">
<path d="M38.8225 45.8087H39.2678V26.2599H38.8225V45.8087ZM53.3411 53.3556L52.9807 53.7159L47.1741 59.5216L46.8147 59.882H31.2747L30.9143 59.5216L25.1086 53.715L24.7493 53.3556V18.713L25.1086 18.3527L30.9163 12.546L31.2766 12.1866H46.8147L53.3411 18.713V53.3556Z" fill="black" stroke="black" stroke-width="2.45783"/>
<path d="M67.8606 12.1866V40.2609H68.3059V12.1866H82.3792V47.5948L82.2444 47.8585L76.4368 59.214L76.095 59.8829H60.0706L59.7288 59.213L53.9221 47.8585L53.7874 47.5948V12.1866H67.8606Z" fill="black" stroke="black" stroke-width="2.45783"/>
<path d="M96.8987 32.5128H97.344V26.2599H96.8987V32.5128ZM111.417 34.9708H108.514V40.5021H111.418V59.8829H97.344V43.1808H96.8987V59.8829H82.8254V12.1866H104.891L105.251 12.546L111.057 18.3527L111.417 18.713V34.9708Z" fill="black" stroke="black" stroke-width="2.45783"/>
<path d="M120.129 51.6171V59.8827H111.864V51.6171H120.129Z" fill="black" stroke="black" stroke-width="2.45783"/>
<path d="M35.1357 40.8931H35.5811V21.3442H35.1357V40.8931ZM49.6543 48.4399L49.2939 48.8003L43.4873 54.606L43.1279 54.9663H27.5879L27.2275 54.606L21.4219 48.7993L21.0625 48.4399V13.7974L21.4219 13.437L27.2295 7.63037L27.5898 7.271H43.1279L49.6543 13.7974V48.4399Z" fill="#C2F44C" stroke="black" stroke-width="2.45783"/>
<path d="M64.1738 7.271V41.0122H64.6191V7.271H78.6924V40.397L78.5029 40.6978L69.8623 54.394L69.5 54.9673H59.291L58.9297 54.394L50.29 40.6978L50.1006 40.397V7.271H64.1738Z" fill="#C2F44C" stroke="black" stroke-width="2.45783"/>
<path d="M93.2119 27.5972H93.6572V21.3442H93.2119V27.5972ZM107.73 30.0552H104.827V35.5864H107.731V54.9673H93.6572V38.2651H93.2119V54.9673H79.1387V7.271H101.204L101.564 7.63037L107.37 13.437L107.73 13.7974V30.0552Z" fill="#C2F44C" stroke="black" stroke-width="2.45783"/>
<path d="M118.812 43.7715V54.7285H107.855V43.7715H118.812Z" fill="white" stroke="black" stroke-width="2.45783"/>
<rect x="111.917" y="47.8334" width="2.83333" height="2.83333" fill="black"/>
</g>
<defs>
<clipPath id="clip0_12_9694">
<rect width="102" height="55.25" fill="white" transform="translate(19.8333 6.375)"/>
</clipPath>
</defs>
</svg>
