<svg width="99" height="99" viewBox="0 0 99 99" fill="none" xmlns="http://www.w3.org/2000/svg">
<path d="M15.8401 49.4999C15.8401 55.5865 17.3427 61.2153 20.3508 66.3848C23.3574 71.5544 27.4455 75.6439 32.6164 78.6505C37.786 81.6572 43.4148 83.1612 49.5014 83.1612C55.588 83.1612 61.2168 81.6586 66.3863 78.6505C71.5558 75.6439 75.6439 71.5558 78.652 66.3848C81.6586 61.2153 83.1627 55.5865 83.1627 49.4999C83.1627 43.4133 81.6586 37.7845 78.652 32.615C75.6454 27.4455 71.5573 23.3574 66.3863 20.3493C61.2168 17.3427 55.588 15.8386 49.5014 15.8386V19.799C54.891 19.799 59.8595 21.1285 64.4068 23.7859C68.9527 26.4447 72.5551 30.0471 75.214 34.593C77.8714 39.1403 79.2008 44.1074 79.2008 49.4984C79.2008 54.8895 77.8714 59.8566 75.214 64.4039C72.5551 68.9513 68.9527 72.5536 64.4068 75.211C59.8595 77.8699 54.8925 79.1979 49.5014 79.1979C44.1103 79.1979 39.1418 77.8684 34.5959 75.211C30.0486 72.5522 26.4462 68.9498 23.7888 64.4039C21.1299 59.858 19.802 54.8895 19.802 49.4984C19.802 44.1074 21.1299 39.1403 23.7888 34.593C25.5995 31.4954 27.8593 28.8468 30.5475 26.6267L28.0119 23.5672C24.9597 26.0852 22.3977 29.0918 20.3508 32.6135C17.3441 37.783 15.8401 43.4118 15.8401 49.4984V49.4999Z" fill="#C2F44C"/>
<path d="M13.5027 28.6546C9.78005 35.0347 7.9209 41.9827 7.9209 49.5C7.9209 57.0173 9.78151 63.9652 13.5027 70.3453C17.224 76.7254 22.2746 81.7761 28.6547 85.4973C35.0348 89.2185 41.9828 91.0791 49.5001 91.0791C57.0174 91.0791 63.9653 89.2185 70.3454 85.4973C76.7255 81.7761 81.7762 76.7254 85.4974 70.3453C89.2186 63.9652 91.0793 57.0173 91.0793 49.5C91.0793 41.9827 89.2172 35.0347 85.4974 28.6546C81.7747 22.2745 76.7255 17.2239 70.3454 13.5026C63.9653 9.78139 57.0159 7.92078 49.5001 7.92078V11.8812C54.5962 11.8812 59.4737 12.8717 64.1297 14.8511C68.7856 16.8306 72.7915 19.4983 76.1474 22.8541C79.5018 26.2085 82.1694 30.2159 84.1504 34.8718C86.1298 39.5292 87.1203 44.4053 87.1203 49.5014C87.1203 54.5976 86.1298 59.4751 84.1504 64.131C82.1709 68.7884 79.5032 72.7929 76.1474 76.1487C72.793 79.5031 68.7856 82.1708 64.1297 84.1517C59.4723 86.1312 54.5962 87.1217 49.5001 87.1217C44.4039 87.1217 39.5264 86.1312 34.8705 84.1517C30.2131 82.1722 26.2086 79.5046 22.8528 76.1487C19.4984 72.7943 16.8307 68.7884 14.8498 64.131C12.8703 59.4751 11.8798 54.5976 11.8798 49.5014C11.8798 44.4053 12.8703 39.5278 14.8498 34.8718C16.8293 30.2159 19.4969 26.21 22.8528 22.8541C23.6818 22.0251 24.552 21.2386 25.4603 20.4931L22.9702 17.488C19.2034 20.6003 16.0369 24.3127 13.5027 28.6575V28.6546Z" fill="#C2F44C"/>
<path d="M95.0675 30.2776C92.4453 24.1719 88.9251 18.9114 84.5069 14.4931C80.0872 10.0749 74.8267 6.55471 68.7225 3.93253C62.6168 1.31182 56.2102 0 49.5 0V3.96041C55.66 3.96041 61.5529 5.16218 67.1832 7.56279C72.8105 9.96486 77.6601 13.2004 81.7306 17.2709C85.8011 21.3413 89.0366 26.1895 91.4387 31.8183C93.8393 37.4471 95.0411 43.3415 95.0411 49.5015C95.0411 55.6615 93.8393 61.5558 91.4387 67.1846C89.0366 72.8135 85.8011 77.6616 81.7306 81.7321C77.6601 85.8025 72.8105 89.0381 67.1832 91.4401C61.5544 93.8422 55.66 95.0425 49.5 95.0425C43.34 95.0425 37.4456 93.8422 31.8168 91.4401C26.188 89.0395 21.3399 85.8025 17.2694 81.7321C13.1989 77.6616 9.96339 72.8135 7.56132 67.1846C5.15925 61.5558 3.95894 55.6615 3.95894 49.5015C3.95894 43.3415 5.15925 37.4471 7.56132 31.8183C9.96192 26.1895 13.1989 21.3413 17.2694 17.2709C18.2731 16.2672 19.3252 15.3163 20.4227 14.4139L17.9165 11.3897C16.7235 12.3699 15.5819 13.4044 14.4917 14.4931C10.072 18.9114 6.55324 24.1733 3.93106 30.2776C1.31035 36.3818 0 42.7898 0 49.5C0 56.2102 1.31035 62.6168 3.93253 68.7225C6.55324 74.8281 10.0734 80.0886 14.4931 84.5069C18.9114 88.9251 24.1733 92.4453 30.2776 95.0675C36.3832 97.6882 42.7898 99 49.5 99C56.2102 99 62.6168 97.6882 68.7225 95.0675C74.8281 92.4468 80.0886 88.9266 84.5069 84.5069C88.9251 80.0886 92.4453 74.8267 95.0675 68.7225C97.6882 62.6168 99 56.2102 99 49.5C99 42.7898 97.6882 36.3832 95.0675 30.2776Z" fill="#C2F44C"/>
</svg>
