<svg width="120" height="63" viewBox="0 0 120 63" fill="none" xmlns="http://www.w3.org/2000/svg">
<g clip-path="url(#clip0_649_13397)">
<path d="M35.7879 41.3967H36.1981V23.3977H35.7879V41.3967ZM49.1551 48.345L48.8241 48.677L43.1463 54.3547H28.8387L28.5067 54.0227L23.162 48.677L22.8299 48.345V16.4495L23.162 16.1174L28.5086 10.7717L28.8397 10.4397H43.1463L48.8241 16.1174L49.1551 16.4495V48.345Z" fill="black" stroke="black" stroke-width="2.26296"/>
<path d="M62.5237 10.4397V36.2893H62.9339V10.4397H75.8909V43.0413L75.7669 43.2844L70.4202 53.7385L70.1048 54.3547H55.3519L55.0364 53.7385L49.6898 43.2844L49.5657 43.0413V10.4397H62.5237Z" fill="black" stroke="black" stroke-width="2.26296"/>
<path d="M89.2596 29.1555H89.6698V23.3977H89.2596V29.1555ZM102.627 31.4182H99.9539V36.511H102.628V54.3547H89.6698V38.9778H89.2596V54.3547H76.3016V10.4397H96.618L102.296 16.1174L102.627 16.4495V31.4182Z" fill="black" stroke="black" stroke-width="2.26296"/>
<path d="M110.649 46.7439V54.3552H103.037V46.7439H110.649Z" fill="black" stroke="black" stroke-width="2.26296"/>
<path d="M32.3935 36.8708H32.8036V18.8718H32.3935V36.8708ZM45.7607 43.8191L45.4296 44.1511L39.7519 49.8289H25.4442L25.1122 49.4968L19.7675 44.1511L19.4355 43.8191V11.9236L19.7675 11.5916L25.1142 6.24585L25.4452 5.91382H39.7519L45.4296 11.5916L45.7607 11.9236V43.8191Z" fill="#B8FF12" stroke="black" stroke-width="2.26296"/>
<path d="M59.1293 5.91382V36.9802H59.5395V5.91382H72.4965V36.4138L72.3227 36.6912L64.3666 49.3015L64.0336 49.8289H54.6342L54.3012 49.3015L46.3461 36.6912L46.1713 36.4138V5.91382H59.1293Z" fill="#B8FF12" stroke="black" stroke-width="2.26296"/>
<path d="M85.8652 24.6296H86.2753V18.8718H85.8652V24.6296ZM99.2324 26.8923H96.5595V31.9851H99.2333V49.8289H86.2753V34.4519H85.8652V49.8289H72.9072V5.91382H93.2236L98.9013 11.5916L99.2324 11.9236V26.8923Z" fill="#B8FF12" stroke="black" stroke-width="2.26296"/>
<path d="M109.436 39.5205V49.6104H99.3464V39.5205H109.436Z" fill="white" stroke="black" stroke-width="2.26296"/>
<rect x="103.087" y="43.261" width="2.6087" height="2.6087" fill="black"/>
</g>
<defs>
<clipPath id="clip0_649_13397">
<rect width="93.913" height="50.8696" fill="white" transform="translate(18.2609 5.86963)"/>
</clipPath>
</defs>
</svg>
