<svg width="160" height="185" viewBox="0 0 160 185" fill="none" xmlns="http://www.w3.org/2000/svg">
<path opacity="0.9" d="M119.461 41.9955C119.461 38.8528 116.911 36.303 113.768 36.303C113.254 36.303 112.757 36.3715 112.285 36.4983V32.0739C112.285 13.252 102.048 1 80.2305 1C58.4133 1 48.1764 13.252 48.1764 32.0739V36.4983C47.7035 36.3715 47.2066 36.303 46.6925 36.303C43.5498 36.303 41 38.8528 41 41.9955C41 44.696 44.3346 54.2955 48.3718 56.9446C50.2567 74.1078 65.6 87.4907 80.2305 87.4907C94.8609 87.4907 110.28 74.1009 112.096 56.9378C116.126 54.2852 119.458 44.6926 119.458 41.9955H119.461Z" stroke="white" stroke-width="2" stroke-miterlimit="10" stroke-linecap="round" stroke-dasharray="4 4"/>
<g opacity="0.9">
<path d="M158.981 149.233C159.143 151.399 158.253 153.508 156.61 154.935C136.109 172.723 109.316 183.491 79.9997 183.491C50.6836 183.491 23.8836 172.719 3.38586 154.928C1.74645 153.504 0.859444 151.399 1.01821 149.236C2.45398 129.873 10.4854 115.26 18.4097 109.341C35.9428 96.2411 58.4906 90.4907 58.4906 90.4907C58.4906 90.4907 68.3927 97.3692 79.9997 97.3692C93.5878 97.3692 101.509 90.4907 101.509 90.4907C101.509 90.4907 124.057 96.2411 141.59 109.341C149.514 115.26 157.545 129.87 158.981 149.229V149.233Z" stroke="white" stroke-width="2" stroke-miterlimit="10" stroke-linecap="round" stroke-dasharray="4 4"/>
</g>
</svg>
