<svg width="136" height="24" viewBox="0 0 136 24" fill="none" xmlns="http://www.w3.org/2000/svg">
<g clip-path="url(#clip0_1557_3518)">
<g clip-path="url(#clip1_1557_3518)">
<path d="M15.537 0.444336C15.5168 7.48474 15.4966 14.515 15.4764 21.5554C14.0116 21.7575 12.5468 21.9696 11.082 22.1817C11.082 17.2928 11.1022 12.4039 11.1123 7.51504C10.5163 12.4342 9.92024 17.414 9.33432 22.4443C8.2938 22.6059 7.26339 22.7676 6.22288 22.9393C5.61675 18.1009 5.01063 13.1918 4.3944 8.22211C4.3944 13.2322 4.3843 18.2322 4.3742 23.2423C2.9094 23.4847 1.4547 23.7373 0 23.9999V0.494841C2.17195 0.494841 4.34389 0.474639 6.51584 0.474639C6.70778 1.81807 6.89972 3.40393 7.10176 5.22211C7.33411 7.111 7.57655 8.97969 7.8089 10.8484C8.20288 7.36353 8.59686 3.89888 8.98074 0.464538C11.1628 0.464538 13.3448 0.454437 15.537 0.444336Z" fill="white"/>
<path d="M26.2755 0.414398C27.215 7.02046 28.1444 13.5255 29.0839 19.9295C27.3665 20.1013 25.6492 20.2932 23.9419 20.4851C23.8611 19.2932 23.7702 18.1013 23.6894 16.8992C23.0934 16.9599 22.4872 17.0104 21.8912 17.071C21.7902 18.2932 21.6791 19.5255 21.5781 20.7578C19.8405 20.97 18.113 21.1922 16.3755 21.4245C17.2544 14.3134 18.1332 7.31339 19.0121 0.424499C21.4366 0.424499 23.8611 0.414398 26.2957 0.404297L26.2755 0.414398ZM23.5581 13.3538C23.3156 11.0912 23.0631 8.29319 22.8206 4.92955C22.2953 8.80834 21.9619 11.677 21.8205 13.4851C22.3963 13.4447 22.9721 13.3942 23.5581 13.3538Z" fill="white"/>
<path d="M38.8021 0.394225C38.8021 1.63665 38.8021 2.88918 38.792 4.1316C37.7919 4.1518 36.8019 4.1619 35.8018 4.1821C35.7816 9.22251 35.7614 14.273 35.7412 19.3134C34.0643 19.4548 32.3772 19.6063 30.7003 19.768C30.7205 14.6063 30.7407 9.43463 30.7609 4.27301C29.7709 4.29322 28.7708 4.31342 27.7808 4.33362L27.801 0.394225C31.468 0.394225 35.1351 0.384124 38.8122 0.374023L38.8021 0.394225Z" fill="white"/>
<path d="M51.6921 8.19192C50.0152 8.22222 48.3281 8.26263 46.6512 8.30303C46.6512 7.25253 46.6512 6.19192 46.6512 5.14141C46.6512 4.22222 46.6007 3.64647 46.4997 3.42424C46.3885 3.20202 46.1562 3.08081 45.7925 3.09091C45.3783 3.09091 45.1157 3.23232 45.0045 3.51515C44.8934 3.79798 44.8328 4.39394 44.8328 5.32323C44.8328 8.15152 44.8126 10.9899 44.8025 13.8182C44.8025 14.7071 44.853 15.2828 44.9641 15.5455C45.0753 15.8081 45.3278 15.9293 45.7218 15.9091C46.0956 15.8889 46.3481 15.7475 46.4592 15.4646C46.5805 15.1919 46.631 14.5556 46.6411 13.5556C46.6411 12.798 46.6411 12.0303 46.6411 11.2727C48.318 11.2121 50.0051 11.1717 51.682 11.1212C51.682 11.3535 51.682 11.5859 51.682 11.8182C51.682 13.6768 51.5305 15 51.2476 15.7879C50.9648 16.5758 50.3283 17.2828 49.3585 17.9192C48.3887 18.5556 47.1866 18.9091 45.7622 18.9899C44.2873 19.0707 43.0649 18.9091 42.1052 18.4545C41.1456 18.0101 40.5192 17.3434 40.2061 16.4545C39.8929 15.5657 39.7515 14.2121 39.7515 12.3838C39.7515 10.5758 39.7616 8.75758 39.7717 6.9495C39.7717 5.60606 39.8222 4.59596 39.9232 3.92929C40.0242 3.26263 40.3071 2.60606 40.7819 1.9899C41.2567 1.36364 41.9234 0.878788 42.7619 0.525253C43.6206 0.171717 44.5904 0 45.6814 0C47.1664 0 48.3887 0.272727 49.3484 0.79798C50.3081 1.33333 50.9446 1.9899 51.2476 2.78788C51.5507 3.57576 51.6921 4.80808 51.6921 6.48485C51.6921 7.05051 51.6921 7.61616 51.6921 8.19192Z" fill="white"/>
<path d="M65.1076 0.374023C65.1076 6.25281 65.1076 12.1215 65.1076 18.0003C63.4206 18.0104 61.7436 18.0306 60.0566 18.071C60.0566 15.5962 60.0566 13.1215 60.0566 10.6367C59.5515 10.6367 59.0464 10.6468 58.5514 10.6569C58.5514 13.1417 58.5514 15.6164 58.5413 18.1013C56.8542 18.1417 55.1773 18.1922 53.4902 18.2528C53.5003 12.2932 53.5205 6.33362 53.5306 0.384124C55.2076 0.384124 56.8845 0.384124 58.5716 0.384124C58.5716 2.49524 58.5716 4.60635 58.5716 6.71746C59.0767 6.71746 59.5818 6.71746 60.0768 6.70736C60.0768 4.59625 60.0768 2.48513 60.0768 0.384124C61.7537 0.384124 63.4307 0.384124 65.1177 0.384124L65.1076 0.374023Z" fill="white"/>
<path d="M76.4828 0.374023C76.4828 5.0912 76.4929 9.81847 76.503 14.5356C77.5233 14.5558 78.5537 14.576 79.5741 14.6063C79.5741 15.7983 79.5741 16.9801 79.5741 18.1619C76.8667 18.0811 74.1594 18.0205 71.452 18.0003C71.452 12.1215 71.452 6.24271 71.4419 0.374023C73.1188 0.374023 74.7958 0.374023 76.4828 0.374023Z" fill="white"/>
<path d="M85.8071 0.383789C85.8273 6.39389 85.8374 12.404 85.8576 18.4141C84.1705 18.3333 82.4936 18.2626 80.8065 18.2121C80.7964 12.2727 80.7863 6.32318 80.7661 0.383789C82.4431 0.383789 84.12 0.383789 85.8071 0.383789Z" fill="white"/>
<path d="M99.0711 0.39389C99.0913 6.68682 99.1216 12.9696 99.1418 19.2626C97.6669 19.1414 96.192 19.0303 94.7171 18.9292C93.8281 16.0606 92.9492 13.2222 92.0603 10.404C92.0603 13.1919 92.0805 15.9696 92.0906 18.7575C90.6864 18.6666 89.2721 18.5858 87.8679 18.5151C87.8477 12.4747 87.8275 6.42419 87.8174 0.383789C89.2216 0.383789 90.6258 0.383789 92.0299 0.383789C92.9795 3.14136 93.9291 5.92924 94.8888 8.74743C94.8787 5.95955 94.8686 3.18177 94.8585 0.39389C96.2627 0.39389 97.6669 0.39389 99.0711 0.39389Z" fill="white"/>
<path d="M101.102 0.404297C103.9 0.404297 106.698 0.414398 109.506 0.424499C109.506 1.74773 109.517 3.07096 109.517 4.3942C108.395 4.36389 107.274 4.34369 106.153 4.31339C106.153 5.54571 106.153 6.77803 106.163 8.01036C107.213 8.05076 108.264 8.10127 109.315 8.14167C109.315 9.3942 109.325 10.6568 109.325 11.9093C108.274 11.8386 107.223 11.778 106.173 11.7174C106.173 13.1518 106.183 14.576 106.193 16.0104C107.425 16.1114 108.658 16.2124 109.89 16.3235L109.911 20.3033C107.001 19.9801 104.092 19.6972 101.172 19.4447C101.142 13.1013 101.122 6.74773 101.102 0.404297Z" fill="white"/>
<path d="M122.73 0.454131C122.74 5.24201 122.75 10.0299 122.771 14.8178C122.771 16.444 122.73 17.5854 122.639 18.2319C122.548 18.8784 122.266 19.5248 121.801 20.1511C121.336 20.7774 120.72 21.2117 119.952 21.4642C119.184 21.7067 118.275 21.7572 117.235 21.6258C116.083 21.4743 115.063 21.141 114.174 20.6258C113.285 20.1107 112.628 19.5248 112.184 18.838C111.739 18.1511 111.477 17.4541 111.396 16.7471C111.315 16.0299 111.264 14.545 111.254 12.2824C111.244 8.33292 111.224 4.38342 111.214 0.423828C112.891 0.423828 114.568 0.423828 116.255 0.433929C116.275 5.58544 116.295 10.7471 116.305 15.8986C116.305 16.7976 116.356 17.3834 116.447 17.6359C116.538 17.8986 116.72 18.04 117.002 18.0703C117.326 18.1006 117.528 17.9895 117.619 17.7168C117.71 17.4541 117.75 16.7976 117.75 15.7572C117.73 10.6461 117.72 5.53494 117.699 0.423828C119.376 0.423828 121.053 0.423828 122.74 0.433929L122.73 0.454131Z" fill="white"/>
<path d="M124.68 0.454102C126.367 0.454102 128.064 0.464203 129.751 0.474304C131.125 0.474304 132.175 0.605617 132.913 0.868243C133.65 1.13087 134.206 1.50461 134.58 1.99956C134.953 2.49451 135.206 3.10057 135.337 3.79754C135.469 4.50461 135.539 5.59552 135.539 7.06016V9.11067C135.539 10.6056 135.408 11.6965 135.156 12.3531C134.903 13.0198 134.428 13.4945 133.751 13.7874C133.075 14.0804 132.186 14.1713 131.084 14.0602C130.64 14.0198 130.185 13.9693 129.741 13.9288C129.741 16.9592 129.741 19.9794 129.751 23.0097C128.084 22.7369 126.407 22.4743 124.73 22.2218C124.71 14.9693 124.7 7.70663 124.68 0.454102ZM129.721 4.32279C129.721 6.23188 129.721 8.15107 129.721 10.0602C129.862 10.0804 129.993 10.0905 130.094 10.1006C130.559 10.1309 130.872 10.0299 131.054 9.76723C131.236 9.51471 131.317 8.95915 131.317 8.12077C131.317 7.49451 131.317 6.86824 131.317 6.25208C131.317 5.4743 131.216 4.95915 131.004 4.71673C130.802 4.4743 130.367 4.34299 129.711 4.32279H129.721Z" fill="white"/>
</g>
</g>
<defs>
<clipPath id="clip0_1557_3518">
<rect width="135.529" height="24" fill="white"/>
</clipPath>
<clipPath id="clip1_1557_3518">
<rect width="135.529" height="24" fill="white"/>
</clipPath>
</defs>
</svg>
