<svg width="20" height="20" viewBox="0 0 20 20" fill="none" xmlns="http://www.w3.org/2000/svg">
<path d="M13.3337 17.5V15.8333C13.3337 14.9493 12.9825 14.1014 12.3573 13.4763C11.7322 12.8512 10.8844 12.5 10.0003 12.5H5.00033C4.11627 12.5 3.26842 12.8512 2.6433 13.4763C2.01818 14.1014 1.66699 14.9493 1.66699 15.8333V17.5" stroke="#D6D6D5" stroke-width="1.5" stroke-linecap="round" stroke-linejoin="round"/>
<path d="M7.50033 9.16667C9.34127 9.16667 10.8337 7.67428 10.8337 5.83333C10.8337 3.99238 9.34127 2.5 7.50033 2.5C5.65938 2.5 4.16699 3.99238 4.16699 5.83333C4.16699 7.67428 5.65938 9.16667 7.50033 9.16667Z" stroke="#D6D6D5" stroke-width="1.5" stroke-linecap="round" stroke-linejoin="round"/>
<path d="M15.833 6.66699V11.667" stroke="#D6D6D5" stroke-width="1.5" stroke-linecap="round" stroke-linejoin="round"/>
<path d="M18.333 9.16699H13.333" stroke="#D6D6D5" stroke-width="1.5" stroke-linecap="round" stroke-linejoin="round"/>
</svg>
