<svg width="24" height="24" viewBox="0 0 24 24" fill="none" xmlns="http://www.w3.org/2000/svg">
<g clip-path="url(#clip0_3933_67048)">
<path d="M17 4C18.1 4 19 4.9 19 6V18C19 19.1 18.1 20 17 20H7C5.9 20 5 19.1 5 18V6C5 4.9 5.9 4 7 4H17ZM17 2H7C4.79 2 3 3.79 3 6V18C3 20.21 4.79 22 7 22H17C19.21 22 21 20.21 21 18V6C21 3.79 19.21 2 17 2Z" fill="white"/>
<path d="M15.99 3.5C15.99 4.88 14.67 6 13.05 6H10.94C9.31 6 8 4.88 8 3.5" stroke="white" stroke-width="1.5" stroke-miterlimit="10"/>
<path d="M8 20.5C8 19.12 9.32 18 10.94 18H13.05C14.68 18 15.99 19.12 15.99 20.5" stroke="white" stroke-width="1.5" stroke-miterlimit="10"/>
<path d="M4.04004 12H19.96" stroke="white" stroke-width="1.5" stroke-miterlimit="10"/>
<circle cx="12" cy="12" r="3" fill="white"/>
</g>
<defs>
<clipPath id="clip0_3933_67048">
<rect width="18" height="20" fill="white" transform="translate(3 2)"/>
</clipPath>
</defs>
</svg>
