<svg width="24" height="24" viewBox="0 0 24 24" fill="none" xmlns="http://www.w3.org/2000/svg">
<path d="M18.6 5.39995C19.81 5.39995 20.8 6.38995 20.8 7.59995V16.4C20.8 17.61 19.81 18.5999 18.6 18.5999H5.4C4.19 18.5999 3.2 17.61 3.2 16.4V7.59995C3.2 6.38995 4.19 5.39995 5.4 5.39995H18.6ZM18.6 3.19995H5.4C2.969 3.19995 1 5.16895 1 7.59995V16.4C1 18.8309 2.969 20.7999 5.4 20.7999H18.6C21.031 20.7999 23 18.8309 23 16.4V7.59995C23 5.16895 21.031 3.19995 18.6 3.19995Z" fill="white"/>
<path d="M5.30093 13.738L7.56693 11.835C8.02893 11.439 8.31493 11.153 8.31493 10.713C8.31493 10.24 7.97393 9.94295 7.50093 9.94295C7.02793 9.94295 6.70893 10.24 6.70893 10.757H5.17993C5.17993 9.48095 6.09293 8.69995 7.50093 8.69995C8.90893 8.69995 9.86593 9.43695 9.86593 10.57C9.86593 11.274 9.51393 11.879 8.13893 13.034L7.52293 13.562V13.595H9.93193V14.882H5.30093V13.727V13.738Z" fill="white"/>
<path d="M11.6597 10.449C11.6597 9.99801 12.0227 9.63501 12.4737 9.63501C12.9027 9.63501 13.2877 9.99801 13.2877 10.449C13.2877 10.9 12.9027 11.263 12.4737 11.263C12.0227 11.263 11.6487 10.9 11.6597 10.449ZM11.6597 13.54C11.6597 13.089 12.0227 12.726 12.4737 12.726C12.9027 12.726 13.2877 13.089 13.2877 13.54C13.2877 13.991 12.9027 14.354 12.4737 14.354C12.0227 14.354 11.6487 13.991 11.6597 13.54Z" fill="white"/>
<path d="M18.0064 14.8489H16.4004V10.2289H16.3674L15.0144 11.0429V9.66788L16.5214 8.75488H18.0064V14.8599V14.8489Z" fill="white"/>
</svg>
