<svg width="74" height="48" viewBox="0 0 74 48" fill="none" xmlns="http://www.w3.org/2000/svg">
<path d="M22.6869 9.70483H12.4373L8.33789 13.8036V37.5387L12.436 41.6375H22.6869L26.7857 37.5387V13.8036L22.6869 9.70483ZM16.5373 17.9042H18.5863V33.4381H16.5373V17.9042Z" fill="black"/>
<path d="M22.6865 9.70483H12.4375L8.33789 13.8035V37.5388L12.4355 41.6375H22.6865L26.7861 37.5388V13.8035L22.6865 9.70483ZM18.5859 17.9041V33.4382H16.5371V17.9041H18.5859ZM28.5205 38.2576L23.4053 43.3728H11.7178L7.11133 38.7654L6.60254 38.2576V13.0847L11.2109 8.47827L11.7188 7.96948H23.4053L28.5205 13.0847V38.2576Z" fill="black"/>
<path d="M39.0839 9.70482V29.5224H37.0348V9.70482H28.8354V33.623L32.9342 41.6381H43.1839L47.2832 33.623V9.70482H39.0839Z" fill="black"/>
<path d="M39.0835 9.70482V29.5222H37.0347V9.70482H28.8354V33.6228L32.9341 41.6384H43.1841L47.2837 33.6228V9.70482H39.0835ZM49.0181 34.0408L44.2456 43.3728H31.8726L27.1001 34.0408V7.96947H49.0181V34.0408Z" fill="black"/>
<path d="M65.7309 29.6924V24.0532H67.7806V13.8036L63.6818 9.70482H49.3328V41.6381H57.5321V29.8487H59.5812V41.6381H67.7812V29.6924H65.7309ZM59.5812 24.0532H57.5321V17.9042H59.5812V24.0532Z" fill="black"/>
<path d="M57.532 41.6384V29.8484H59.5808V41.6384H67.781V29.6921H65.7312V24.0535H67.781V13.8035L63.6814 9.70482H49.3328V41.6384H57.532ZM59.5808 17.904V24.0535H57.532V17.904H59.5808ZM69.5154 25.7878H67.4656V27.9577H69.5164V43.3728H47.5974V7.96947H64.4001L69.5154 13.0847V25.7878Z" fill="black"/>
<path d="M20.0844 6.23494H9.83472L5.73535 10.3337V34.0689L9.83348 38.1676H20.0844L24.1831 34.0689V10.3337L20.0844 6.23494ZM13.9347 14.4343H15.9838V29.9682H13.9347V14.4343Z" fill="#B8FF12"/>
<path d="M20.084 6.23494H9.83496L5.73535 10.3336V34.0689L9.83301 38.1676H20.084L24.1836 34.0689V10.3336L20.084 6.23494ZM15.9834 14.4342V29.9683H13.9346V14.4342H15.9834ZM25.918 34.7877L20.8027 39.9029H9.11523L4.50879 35.2955L4 34.7877V9.61482L8.6084 5.00838L9.11621 4.49959H20.8027L25.918 9.61482V34.7877Z" fill="black"/>
<path d="M36.4813 6.23492V30.0525H34.4323V6.23492H26.2329V28.5L32.3317 38.1682H38.5813L44.6807 28.5V6.23492H36.4813Z" fill="#B8FF12"/>
<path d="M36.481 6.23492V30.0523H34.4321V6.23492H26.2329V28.4996L32.3315 38.1685H38.5815L44.6812 28.4996V6.23492H36.481ZM46.4155 29.0015L39.5386 39.9029H31.3745L24.4976 29.0015V4.49957H46.4155V29.0015Z" fill="black"/>
<path d="M63.1283 26.2225V20.5833H65.178V10.3337L61.0793 6.23492H46.7302V38.1682H54.9296V26.3788H56.9786V38.1682H65.1786V26.2225H63.1283ZM56.9786 20.5833H54.9296V14.4343H56.9786V20.5833Z" fill="#B8FF12"/>
<path d="M54.9294 38.1685V26.3785H56.9783V38.1685H65.1785V26.2222H63.1287V20.5836H65.1785V10.3336L61.0789 6.23492H46.7302V38.1685H54.9294ZM56.9783 14.4341V20.5836H54.9294V14.4341H56.9783ZM66.9128 22.3179H64.863V24.4879H66.9138V39.9029H44.9949V4.49957H61.7976L66.9128 9.61481V22.3179Z" fill="black"/>
</svg>
