<svg width="24" height="24" viewBox="0 0 24 24" fill="none" xmlns="http://www.w3.org/2000/svg">
<path fill-rule="evenodd" clip-rule="evenodd" d="M15.65 14.35C16.25 14.65 16.95 14.35 17.05 13.75C17.25 12.75 18.65 12.75 18.95 13.75C19.15 14.35 19.85 14.65 20.35 14.35C21.25 13.85 22.15 14.85 21.65 15.65C21.35 16.25 21.65 16.95 22.25 17.05C23.25 17.25 23.25 18.65 22.25 18.95C21.65 19.15 21.35 19.85 21.65 20.35C22.15 21.25 21.15 22.15 20.35 21.65C19.75 21.35 19.05 21.65 18.95 22.25C18.75 23.25 17.35 23.25 17.05 22.25C16.85 21.65 16.15 21.35 15.65 21.65C14.75 22.15 13.85 21.15 14.35 20.35C14.65 19.75 14.35 19.05 13.75 18.95C12.75 18.75 12.75 17.35 13.75 17.05C14.35 16.85 14.65 16.15 14.35 15.65C13.85 14.85 14.85 13.85 15.65 14.35ZM17.95 19.75C18.85 19.75 19.65 19.05 19.65 18.05C19.65 17.15 18.95 16.35 17.95 16.35C17.05 16.35 16.25 17.05 16.25 18.05C16.25 18.95 17.05 19.75 17.95 19.75Z" fill="white"/>
<g clip-path="url(#clip0_3933_67429)">
<path d="M12 21H7.56C5.6 21 4 19.39 4 17.4V6.6C4 4.61 5.59 3 7.56 3H16.45C18.41 3 20.01 4.61 20.01 6.6V11.5" stroke="white" stroke-width="2" stroke-miterlimit="10" stroke-linecap="round"/>
</g>
<defs>
<clipPath id="clip0_3933_67429">
<rect width="18" height="20" fill="white" transform="translate(3 2)"/>
</clipPath>
</defs>
</svg>
